<?xml version="1.0" encoding="utf-8"?>
<!-- Generator: Adobe Illustrator 23.0.6, SVG Export Plug-In . SVG Version: 6.00 Build 0)  -->
<svg version="1.1" id="Layer_1" xmlns="http://www.w3.org/2000/svg" xmlns:xlink="http://www.w3.org/1999/xlink" x="0px" y="0px"
	 width="288px" height="384.5px" viewBox="0 0 288 384.5" style="enable-background:new 0 0 288 384.5;" xml:space="preserve">
<style type="text/css">
	.st0{fill:#00BFFF;}
	.st1{fill:#414141;}
</style>
<g>
	<path class="st0" d="M258.7,165.6c0,0,0,3.5,0,5.5c2.7,0,25.4,0,29.3,0v27.7c-3.9,0-26.6,0-29.3,0c0,2.4,0,9.8,0,9.8
		c0,15.4-4.7,16.7-9.1,16.7c-5.1,0-11-1.9-11-16.7v-43c0-14.8,5.9-16.6,11-16.6C254,148.9,258.7,150.2,258.7,165.6z M206.2,169.9
		v34.3c0,39.9,27.2,45.8,43.4,45.8c11.2,0,31-3.1,38.4-22.8V288H164.6c15.7-4.5,26.2-13.8,26.2-43.9c0,0,0-114.2,0-117.4
		c-2.8,0-29.9,0-32.8,0c0,3.2,0,120.2,0,120.2c0,12.5-9.4,17.2-18,19.9c0,1.9,0,18.3,0,21.2H0V0h288v147.3
		c-7.6-20.2-27.2-23.3-38.4-23.3C233.4,124.1,206.2,130,206.2,169.9z M144.2,126L144.2,126c-0.3,0-7.7-0.3-13.5,0.7
		c-9.2,1.5-17.9,7.9-19.6,19.3c0-0.5,0-16.1,0-18.8c-2.9,0-29.9,0-32.8,0c0,3.2,0,118.6,0,121.8c2.8,0,29.9,0,32.8,0
		c0-3.2,0-73.1,0-73.1c0.3-10.6,8.3-18.3,15.8-19.6c6.1-1,11-1,17.3-0.2C144.2,153.1,144.2,128.9,144.2,126z M190.5,90.1
		c-2.8,0-29.2,0-32.1,0c0,2.6,0,20.3,0,23c2.8,0,29.2,0,32.1,0C190.5,110.4,190.5,92.7,190.5,90.1z"/>
</g>
<path class="st1" d="M152.1,348.4c-0.9-1.5-2.1-2.7-3.4-3.5c-1.4-0.8-3-1.2-4.9-1.2c-3.2,0-5.8,1.3-7.6,3.8c-1.8,2.6-2.7,6-2.7,10.2
	v0.5c0,4,0.9,7.2,2.7,9.6c1.8,2.4,4.3,3.6,7.5,3.6c1.8,0,3.5-0.4,4.8-1.1c1.4-0.7,2.5-1.8,3.4-3.1v3.4c0,2.7-0.7,4.8-2,6.3
	c-1.3,1.5-3.3,2.2-5.9,2.2c-1.3,0-2.6-0.1-3.8-0.4c-1.2-0.3-2.3-0.7-3.3-1.2l-0.8,2.5c1.1,0.5,2.4,1,3.8,1.3
	c1.4,0.3,2.8,0.5,4.1,0.5c3.4,0,6-1,7.9-3c1.9-2,2.9-4.7,2.9-8.2v-26.4h-2.5L152.1,348.4z M152,363.9c-0.7,1.5-1.7,2.8-3,3.6
	c-1.3,0.9-2.9,1.3-4.8,1.3c-2.6,0-4.6-1-5.9-2.9c-1.3-1.9-2-4.5-2-7.7v-0.5c0-3.4,0.7-6.2,2-8.3c1.3-2.2,3.3-3.2,5.9-3.2
	c2,0,3.6,0.5,4.9,1.5c1.2,1,2.2,2.3,2.8,3.8V363.9z M81.2,353.5h17.3v-2.5H81.2v-13.5h19.7v-2.5H78.3v36h22.8v-2.5H81.2V353.5z
	 M162.4,370.9h2.9v-26.7h-2.9V370.9z M118.5,343.7c-2,0-3.7,0.4-5.2,1.3c-1.5,0.9-2.6,2.2-3.5,3.8l-0.3-4.7h-2.6v26.7h3v-18.7
	c0.6-1.8,1.5-3.3,2.8-4.4c1.3-1.1,3-1.6,5.1-1.6c2.1,0,3.7,0.6,4.9,1.9c1.1,1.3,1.7,3.4,1.7,6.5v16.3h3v-16.3c0-3.8-0.8-6.5-2.3-8.3
	C123.6,344.5,121.4,343.7,118.5,343.7z M263.1,343.7c-1.8,0-3.3,0.5-4.6,1.4c-1.3,0.9-2.3,2.2-3.1,3.9v-0.3l-0.4-4.4h-2.6v26.7h3
	v-18.5c0.5-1.8,1.4-3.3,2.6-4.3c1.2-1,2.7-1.6,4.6-1.6l2.2,0.1l0.4-2.8c-0.2-0.1-0.5-0.1-0.9-0.2
	C263.8,343.7,263.5,343.7,263.1,343.7z M285.2,358.9c-1.6-1.2-4-2.2-7.1-2.9c-2.8-0.6-4.6-1.3-5.6-2.1c-0.9-0.8-1.4-1.8-1.4-3
	c0-1.2,0.5-2.3,1.6-3.3c1.1-0.9,2.7-1.4,4.9-1.4c2.1,0,3.8,0.5,5,1.6c1.2,1.1,1.9,2.4,1.9,3.8h2.7l0-0.1c0.1-2.2-0.8-4.1-2.5-5.6
	s-4.2-2.2-7.2-2.2c-2.8,0-5.1,0.7-6.8,2.1c-1.7,1.4-2.6,3.1-2.6,5.2c0,2.1,0.8,3.7,2.3,4.8c1.5,1.1,3.9,2.1,7.1,2.7
	c2.7,0.6,4.5,1.4,5.6,2.3c1,0.9,1.5,2,1.5,3.3c0,1.3-0.6,2.5-1.9,3.4c-1.2,0.9-2.9,1.4-5.1,1.4c-2,0-3.7-0.4-5.2-1.3
	c-1.5-0.9-2.2-2.3-2.4-4.2h-2.7l0,0.1c-0.1,2.1,0.8,4,2.6,5.5c1.9,1.5,4.4,2.3,7.6,2.3c3,0,5.3-0.7,7.2-2.1c1.8-1.4,2.7-3.2,2.7-5.4
	C287.5,361.8,286.7,360.1,285.2,358.9z M236,343.7c-3.1,0-5.8,1.3-8,3.8c-2.2,2.5-3.3,5.7-3.3,9.5v1.4c0,3.8,1.1,6.9,3.3,9.4
	c2.2,2.5,5,3.7,8.3,3.7c2.1,0,4-0.3,5.5-0.9c1.5-0.6,2.8-1.5,3.8-2.5l-1.3-2c-0.9,1-2,1.7-3.3,2.2c-1.3,0.5-2.9,0.8-4.7,0.8
	c-2.6,0-4.7-1-6.3-3c-1.6-2-2.4-4.5-2.4-7.5v-0.7h18.9v-2.5c0-3.5-0.9-6.2-2.8-8.3C241.8,344.7,239.3,343.7,236,343.7z M243.6,355.1
	h-15.7l0-0.1c0.2-2.5,1.1-4.6,2.6-6.3c1.5-1.7,3.3-2.5,5.5-2.5c2.3,0,4.2,0.8,5.6,2.3c1.4,1.6,2.1,3.5,2.1,5.8V355.1z M209.9,343.7
	c-3.1,0-5.8,1.3-8,3.8c-2.2,2.5-3.3,5.7-3.3,9.5v1.4c0,3.8,1.1,6.9,3.3,9.4c2.2,2.5,5,3.7,8.3,3.7c2.1,0,4-0.3,5.5-0.9
	c1.5-0.6,2.8-1.5,3.8-2.5l-1.3-2c-0.9,1-2,1.7-3.3,2.2c-1.3,0.5-2.9,0.8-4.7,0.8c-2.6,0-4.7-1-6.3-3c-1.6-2-2.4-4.5-2.4-7.5v-0.7
	h18.9v-2.5c0-3.5-0.9-6.2-2.8-8.3C215.8,344.7,213.2,343.7,209.9,343.7z M217.5,355.1h-15.7l0-0.1c0.2-2.5,1.1-4.6,2.6-6.3
	c1.5-1.7,3.3-2.5,5.5-2.5c2.3,0,4.2,0.8,5.6,2.3c1.4,1.6,2.1,3.5,2.1,5.8V355.1z M162.4,336.5h2.9v-4.2h-2.9V336.5z M184.3,343.7
	c-2,0-3.7,0.4-5.2,1.3c-1.5,0.9-2.6,2.2-3.5,3.8l-0.3-4.7h-2.6v26.7h3v-18.7c0.6-1.8,1.5-3.3,2.8-4.4c1.3-1.1,3-1.6,5.1-1.6
	c2.1,0,3.7,0.6,4.9,1.9c1.1,1.3,1.7,3.4,1.7,6.5v16.3h3v-16.3c0-3.8-0.8-6.5-2.3-8.3C189.4,344.5,187.2,343.7,184.3,343.7z"/>
</svg>
